<svg xmlns="http://www.w3.org/2000/svg" xmlns:xlink="http://www.w3.org/1999/xlink" viewBox="0 0 100 125" version="1.1" xml:space="preserve" style="" x="0px" y="0px" fill-rule="evenodd" clip-rule="evenodd" stroke-linejoin="round" stroke-miterlimit="1.41421"><g><path d="M28.921,15.147c-1.532,0 -3.015,0.196 -4.398,0.544c-6.938,1.751 -13.877,8.046 -13.725,18.164c0.201,14.683 12.689,25.047 24.764,35.07c5.288,4.389 10.358,8.595 14.436,13.133c4.07,-4.535 9.127,-8.744 14.403,-13.139c12.093,-10.069 24.6,-20.482 24.801,-35.175c0.149,-10.054 -6.769,-16.313 -13.695,-18.059c-6.738,-1.699 -15.899,0.228 -21.366,10.748c-0.803,1.547 -2.401,2.517 -4.143,2.517c-1.741,0 -3.34,-0.97 -4.142,-2.517c-4.34,-8.352 -11.005,-11.286 -16.935,-11.286M49.998,94.224c-1.544,0 -2.984,-0.763 -3.857,-2.036c-3.698,-5.419 -9.938,-10.598 -16.539,-16.078c-13.069,-10.844 -27.882,-23.138 -28.141,-42.121c-0.194,-13.174 8.155,-24.168 20.78,-27.352c10.482,-2.635 20.764,0.947 27.757,9.261c7,-8.322 17.306,-11.911 27.791,-9.265c12.607,3.179 20.944,14.127 20.749,27.245c-0.258,18.985 -15.084,31.327 -28.162,42.217c-6.595,5.492 -12.825,10.677 -16.521,16.093c-0.872,1.273 -2.313,2.036 -3.857,2.036" style="" fill="#000" fill-rule="nonzero"/></g><text x="0" y="115" fill="#000000" font-size="5px" font-weight="bold" font-family="'Helvetica Neue', Helvetica, Arial-Unicode, Arial, Sans-serif">Created by Mike Rowe</text><text x="0" y="120" fill="#000000" font-size="5px" font-weight="bold" font-family="'Helvetica Neue', Helvetica, Arial-Unicode, Arial, Sans-serif">from the Noun Project</text></svg>