<svg xmlns="http://www.w3.org/2000/svg" xmlns:xlink="http://www.w3.org/1999/xlink" viewBox="0 0 100 125" version="1.1" xml:space="preserve" style="" x="0px" y="0px" fill-rule="evenodd" clip-rule="evenodd" stroke-linejoin="round" stroke-miterlimit="1.41421"><g><path d="M68.27,87.663l20.567,0l0,-31.789l-39.337,-40.538l-39.337,40.538l0,31.789l20.567,0l0,-18.299c0,-6.054 4.926,-10.979 10.983,-10.979l15.577,0c6.054,0 10.98,4.925 10.98,10.979l0,18.299ZM93.731,97.451l-30.355,0c-2.702,0 -4.894,-2.192 -4.894,-4.894l0,-23.193c0,-0.647 -0.545,-1.191 -1.192,-1.191l-15.577,0c-0.647,0 -1.195,0.544 -1.195,1.191l0,23.193c0,2.702 -2.192,4.894 -4.894,4.894l-30.355,0c-2.702,0 -4.894,-2.192 -4.894,-4.894l0,-38.668c0,-1.271 0.497,-2.494 1.383,-3.409l44.231,-45.582c1.842,-1.899 5.181,-1.899 7.022,0l44.231,45.582c0.886,0.915 1.383,2.138 1.383,3.409l0,38.668c0,2.702 -2.192,4.894 -4.894,4.894" style="" fill="#000" fill-rule="nonzero"/></g><text x="0" y="115" fill="#000000" font-size="5px" font-weight="bold" font-family="'Helvetica Neue', Helvetica, Arial-Unicode, Arial, Sans-serif">Created by Mike Rowe</text><text x="0" y="120" fill="#000000" font-size="5px" font-weight="bold" font-family="'Helvetica Neue', Helvetica, Arial-Unicode, Arial, Sans-serif">from the Noun Project</text></svg>