<svg xmlns="http://www.w3.org/2000/svg" xmlns:xlink="http://www.w3.org/1999/xlink" viewBox="0 0 100 125" version="1.1" xml:space="preserve" style="" x="0px" y="0px" fill-rule="evenodd" clip-rule="evenodd" stroke-linejoin="round" stroke-miterlimit="1.41421"><g><path d="M50,3.474c-25.695,0 -46.526,20.83 -46.526,46.526c0,25.695 20.831,46.525 46.526,46.525c25.695,0 46.526,-20.83 46.526,-46.525c0,-25.696 -20.831,-46.526 -46.526,-46.526M50,12.937c20.437,0 37.063,16.626 37.063,37.063c0,20.436 -16.626,37.063 -37.063,37.063c-20.437,0 -37.063,-16.627 -37.063,-37.063c0,-20.437 16.626,-37.063 37.063,-37.063" style="" fill="#000" fill-rule="nonzero"/><path d="M44.939,36.64c0,4.707 -3.816,8.523 -8.523,8.523c-4.708,0 -8.524,-3.816 -8.524,-8.523c0,-4.707 3.816,-8.523 8.524,-8.523c4.707,0 8.523,3.816 8.523,8.523" style="" fill="#000" fill-rule="nonzero"/><path d="M72.64,36.64c0,4.707 -3.816,8.523 -8.523,8.523c-4.708,0 -8.524,-3.816 -8.524,-8.523c0,-4.707 3.816,-8.523 8.524,-8.523c4.707,0 8.523,3.816 8.523,8.523" style="" fill="#000" fill-rule="nonzero"/><path d="M67.209,54.337l-34.416,0c-1.694,0 -3.308,0.678 -4.432,1.854c-1.01,1.063 -1.528,2.428 -1.46,3.844c0.413,8.487 10.593,18.353 23.099,18.353c12.444,0 23.105,-10.178 23.105,-18.507c0,-3.058 -2.646,-5.544 -5.896,-5.544" style="" fill="#000" fill-rule="nonzero"/></g><text x="0" y="115" fill="#000000" font-size="5px" font-weight="bold" font-family="'Helvetica Neue', Helvetica, Arial-Unicode, Arial, Sans-serif">Created by Mike Rowe</text><text x="0" y="120" fill="#000000" font-size="5px" font-weight="bold" font-family="'Helvetica Neue', Helvetica, Arial-Unicode, Arial, Sans-serif">from the Noun Project</text></svg>